<?xml version="1.0" encoding="UTF-8"?>
<svg xmlns="http://www.w3.org/2000/svg" xmlns:xlink="http://www.w3.org/1999/xlink" width="20px" height="20px" viewBox="0 0 20 20" version="1.1">
<g id="surface1">
<path style=" stroke:none;fill-rule:nonzero;fill:rgb(0%,0%,0%);fill-opacity:1;" d="M 5 15.832031 C 5 16.75 5.75 17.5 6.667969 17.5 L 13.332031 17.5 C 14.25 17.5 15 16.75 15 15.832031 L 15 5.832031 L 5 5.832031 Z M 7.640625 10.492188 C 7.316406 10.167969 7.316406 9.640625 7.640625 9.316406 C 7.964844 8.992188 8.492188 8.992188 8.816406 9.316406 L 10 10.492188 L 11.175781 9.316406 C 11.5 8.992188 12.023438 8.992188 12.351562 9.316406 C 12.675781 9.640625 12.675781 10.167969 12.351562 10.492188 L 11.175781 11.667969 L 12.351562 12.839844 C 12.675781 13.167969 12.675781 13.691406 12.351562 14.015625 C 12.023438 14.339844 11.5 14.339844 11.175781 14.015625 L 10 12.839844 L 8.824219 14.015625 C 8.5 14.339844 7.976562 14.339844 7.648438 14.015625 C 7.324219 13.691406 7.324219 13.167969 7.648438 12.839844 L 8.824219 11.667969 Z M 15 3.332031 L 12.917969 3.332031 L 12.324219 2.742188 C 12.175781 2.589844 11.957031 2.5 11.742188 2.5 L 8.257812 2.5 C 8.042969 2.5 7.824219 2.589844 7.675781 2.742188 L 7.082031 3.332031 L 5 3.332031 C 4.542969 3.332031 4.167969 3.707031 4.167969 4.167969 C 4.167969 4.625 4.542969 5 5 5 L 15 5 C 15.457031 5 15.832031 4.625 15.832031 4.167969 C 15.832031 3.707031 15.457031 3.332031 15 3.332031 Z M 15 3.332031 "/>
</g>
</svg>
